<svg width="31" height="36" viewBox="0 0 31 36" fill="none" xmlns="http://www.w3.org/2000/svg">
<path d="M9.24364 1.28072C6.38389 2.03176 3.89966 3.15833 3.89966 3.73606C3.89966 4.40044 6.52832 9.08003 6.90384 9.08003C7.07716 9.08003 7.91486 8.82006 8.78145 8.47342C9.64804 8.15567 11.1501 7.80904 12.1323 7.72238C15.512 7.40463 17.6207 9.10892 17.8229 12.3153L17.9095 13.5574L14.2987 13.7596C8.69479 14.0485 5.48841 15.0884 2.85975 17.5149C2.16648 18.1504 1.24211 19.4214 0.808818 20.3168C0.144432 21.7034 0.0288864 22.31 0 24.5342C0 28.2028 0.606614 29.8204 2.85975 32.0736C4.96845 34.1823 6.9905 35.0489 10.2547 35.28C13.8366 35.5399 17.3318 34.4711 19.9316 32.3336L21.1159 31.3803L22.5025 33.0846C23.2824 34.0379 24.1201 34.9333 24.409 35.0778C24.7845 35.28 25.5933 34.9333 27.9042 33.5179C29.5219 32.5069 30.9373 31.5536 30.9951 31.3514C31.0528 31.1492 30.4751 30.3115 29.6663 29.4738C26.7488 26.4119 26.1422 24.2454 26.1422 16.9949C26.1422 11.0732 25.9111 9.39779 24.7267 6.91356C22.3292 1.80067 15.9742 -0.510235 9.24364 1.28072ZM18.0829 21.8478C18.1984 23.061 18.3428 24.3898 18.4584 24.7942C18.6028 25.3719 18.4295 25.7764 17.5629 26.7296C13.8655 30.8026 8.23261 29.4449 8.23261 24.4476C8.23261 22.31 9.01254 21.0679 10.9479 20.1724C12.2189 19.5658 12.7678 19.4791 15.1653 19.5369L17.9095 19.6236L18.0829 21.8478Z" fill="#4858FD"/>
</svg>
