<svg width="53" height="14" viewBox="0 0 53 14" fill="none" xmlns="http://www.w3.org/2000/svg">
<path d="M1.11484 3.47281C0.786949 3.47281 0.517346 3.33354 0.306036 3.05501C0.102012 2.76576 0 2.41224 0 1.99444C0 1.56593 0.102012 1.2124 0.306036 0.933869C0.517346 0.644623 0.786949 0.5 1.11484 0.5C1.43545 0.5 1.69777 0.644623 1.90179 0.933869C2.1131 1.2124 2.21876 1.56593 2.21876 1.99444C2.21876 2.41224 2.1131 2.76576 1.90179 3.05501C1.69777 3.33354 1.43545 3.47281 1.11484 3.47281ZM2.04388 4.40482V13.3714H0.174877V4.40482H2.04388Z" fill="#012A47"/>
<path d="M8.9179 2.09085V4.29234H6.88495V13.3714H5.01594V4.29234H2.98299V2.09085H8.9179Z" fill="#012A47"/>
<path d="M11.8551 7.71508C11.8551 6.60095 12.0191 5.61001 12.347 4.74228C12.6749 3.86382 13.1303 3.18356 13.7132 2.70148C14.3034 2.20869 14.9701 1.9623 15.7134 1.9623C16.6242 1.9623 17.4038 2.31582 18.0523 3.02287C18.7008 3.72991 19.1344 4.69407 19.353 5.91533H17.2982C17.1452 5.44396 16.9266 5.08508 16.6424 4.83869C16.3655 4.5923 16.0485 4.4691 15.6915 4.4691C15.1159 4.4691 14.6495 4.7637 14.2925 5.35291C13.9354 5.94211 13.7569 6.7295 13.7569 7.71508C13.7569 8.70066 13.9354 9.48805 14.2925 10.0773C14.6495 10.6665 15.1159 10.9611 15.6915 10.9611C16.0485 10.9611 16.3655 10.8379 16.6424 10.5915C16.9266 10.3451 17.1452 9.9862 17.2982 9.51483H19.353C19.1344 10.7361 18.7008 11.7002 18.0523 12.4073C17.4038 13.1036 16.6242 13.4518 15.7134 13.4518C14.9701 13.4518 14.3034 13.2108 13.7132 12.7287C13.1303 12.2359 12.6749 11.5556 12.347 10.6879C12.0191 9.82015 11.8551 8.82921 11.8551 7.71508Z" fill="#012A47"/>
<path d="M26.2466 8.74351C26.2466 9.00062 26.2357 9.26844 26.2139 9.54697H21.984C22.0132 10.104 22.1334 10.5326 22.3447 10.8325C22.5633 11.1218 22.8293 11.2664 23.1426 11.2664C23.6089 11.2664 23.9332 10.9771 24.1153 10.3986H26.1046C26.0025 10.9878 25.8167 11.5181 25.5471 11.9895C25.2848 12.4609 24.9533 12.8305 24.5525 13.0983C24.1518 13.3661 23.7036 13.5 23.2082 13.5C22.6107 13.5 22.0787 13.3125 21.6124 12.9376C21.1461 12.5626 20.7817 12.027 20.5194 11.3307C20.2571 10.6343 20.1259 9.82015 20.1259 8.88813C20.1259 7.95612 20.2535 7.14194 20.5085 6.44561C20.7708 5.74928 21.1351 5.21364 21.6015 4.83869C22.0678 4.46374 22.6034 4.27627 23.2082 4.27627C23.7984 4.27627 24.323 4.45839 24.782 4.82262C25.2411 5.18686 25.5981 5.70643 25.8532 6.38134C26.1155 7.05624 26.2466 7.84364 26.2466 8.74351ZM24.3339 8.0204C24.3339 7.54903 24.2246 7.17408 24.006 6.89555C23.7874 6.61702 23.5142 6.47775 23.1863 6.47775C22.873 6.47775 22.607 6.61166 22.3884 6.87948C22.1771 7.1473 22.0459 7.52761 21.9949 8.0204H24.3339Z" fill="#012A47"/>
<path d="M30.9488 4.30841C31.6629 4.30841 32.2312 4.65122 32.6538 5.33684C33.0837 6.01174 33.2987 6.94376 33.2987 8.13288V13.3714H31.4406V8.50247C31.4406 7.90255 31.335 7.43655 31.1237 7.10445C30.9124 6.77235 30.6282 6.6063 30.2711 6.6063C29.9141 6.6063 29.6299 6.77235 29.4186 7.10445C29.2073 7.43655 29.1016 7.90255 29.1016 8.50247V13.3714H27.2326V4.40482H29.1016V5.59394C29.2911 5.19757 29.5461 4.8869 29.8667 4.66193C30.1873 4.42625 30.548 4.30841 30.9488 4.30841Z" fill="#012A47"/>
<path d="M37.9967 11.0414V13.3714H37.0458C36.3681 13.3714 35.8398 13.1304 35.4609 12.6483C35.082 12.1555 34.8926 11.3574 34.8926 10.254V6.68665H34.1493V4.40482H34.8926V2.21941H36.7616V4.40482H37.9857V6.68665H36.7616V10.2862C36.7616 10.554 36.8053 10.7468 36.8927 10.8646C36.9802 10.9825 37.1259 11.0414 37.3299 11.0414H37.9967Z" fill="#012A47"/>
<path d="M40.9067 5.89926C41.1253 5.40647 41.3986 5.02081 41.7265 4.74228C42.0544 4.45303 42.4187 4.30841 42.8194 4.30841V7.21694H42.3057C41.8394 7.21694 41.4896 7.36691 41.2565 7.66687C41.0233 7.95612 40.9067 8.47033 40.9067 9.20952V13.3714H39.0377V4.40482H40.9067V5.89926Z" fill="#012A47"/>
<path d="M43.3412 8.87206C43.3412 7.95076 43.4578 7.14194 43.6909 6.44561C43.9314 5.74928 44.2556 5.21364 44.6637 4.83869C45.0717 4.46374 45.5271 4.27627 46.0299 4.27627C46.4598 4.27627 46.8351 4.40482 47.1557 4.66193C47.4836 4.91904 47.735 5.25649 47.9098 5.67429V4.40482H49.7789V13.3714H47.9098V12.102C47.7277 12.5198 47.4727 12.8572 47.1448 13.1143C46.8242 13.3714 46.4489 13.5 46.019 13.5C45.5235 13.5 45.0717 13.3125 44.6637 12.9376C44.2556 12.5519 43.9314 12.0109 43.6909 11.3146C43.4578 10.6075 43.3412 9.79337 43.3412 8.87206ZM47.9098 8.88813C47.9098 8.20251 47.7787 7.66152 47.5164 7.26514C47.2613 6.86877 46.948 6.67058 46.5764 6.67058C46.2048 6.67058 45.8878 6.86877 45.6255 7.26514C45.3705 7.6508 45.243 8.18644 45.243 8.87206C45.243 9.55768 45.3705 10.104 45.6255 10.5111C45.8878 10.9075 46.2048 11.1057 46.5764 11.1057C46.948 11.1057 47.2613 10.9075 47.5164 10.5111C47.7787 10.1148 47.9098 9.57375 47.9098 8.88813Z" fill="#012A47"/>
<path d="M53 1.48022V13.3714H51.131V1.48022H53Z" fill="#012A47"/>
</svg>
