<svg width="55" height="14" viewBox="0 0 55 14" fill="none" xmlns="http://www.w3.org/2000/svg">
<path d="M18.6128 5.18594C19.3814 4.17167 20.2034 3.63701 21.2594 3.69991C22.4423 3.77068 23.2577 4.59624 23.4782 5.97219C23.5651 6.48326 23.5651 7.00219 23.5384 7.52112C23.4782 8.8892 23.4381 10.2494 23.5451 11.6254C23.6052 12.4195 23.5183 12.5296 22.8768 12.6868C22.3555 12.8205 21.8275 12.9148 21.2861 12.8834C20.6579 12.8519 20.5643 12.7654 20.5376 12.0578C20.5176 11.4288 20.551 10.7998 20.5777 10.1708C20.5978 9.54179 20.6379 8.91279 20.5376 8.29165C20.4173 7.48967 20.1366 7.12799 19.6955 7.17516C19.1943 7.22234 18.5527 7.86707 18.5326 8.43317C18.4992 9.28233 18.5326 10.1315 18.5326 10.9806C18.5326 11.3109 18.5393 11.649 18.546 11.9792C18.5594 12.4195 18.399 12.6868 18.0046 12.7104C17.3764 12.734 16.7482 12.7576 16.12 12.7654C15.7724 12.7733 15.612 12.5453 15.5987 12.1443C15.5786 11.476 15.5251 10.8155 15.5318 10.1472C15.5452 7.37173 15.5652 4.59624 15.5987 1.82862C15.612 0.720004 15.6789 0.657103 16.6346 0.633516C17.0757 0.625653 17.5168 0.633516 17.9512 0.680691C18.6395 0.759317 18.7064 0.837942 18.6796 1.63206C18.6462 2.4419 18.5594 3.25175 18.5126 4.06159C18.5126 4.37609 18.4524 4.70632 18.6128 5.18594Z" fill="#FFCC00"/>
<path d="M3.58533 13.1335C2.48259 13.1413 1.53356 12.9212 0.678102 12.3C0.170172 11.9305 0.136756 11.7261 0.417454 11.1207C0.49097 10.9555 0.584536 10.8062 0.678102 10.6568C1.36648 9.48524 1.36648 9.48524 2.50932 10.0278C2.89027 10.2086 3.2779 10.358 3.69895 10.3108C3.93286 10.2794 4.12668 10.1693 4.18682 9.87051C4.26034 9.53242 4.13336 9.29654 3.89276 9.13143C3.58533 8.927 3.2378 8.87983 2.89027 8.88769C2.38234 8.89555 1.88109 8.81693 1.40658 8.62823C0.417454 8.25869 -0.0771093 7.38594 0.00977339 6.17511C0.110023 4.87779 0.684785 3.94214 1.69396 3.4468C3.3581 2.6291 5.00887 2.80993 6.63291 3.66695C7.09405 3.91069 7.22104 4.28809 7.02722 4.83061C6.88019 5.23946 6.75989 5.66404 6.58612 6.05717C6.12498 7.06358 6.00468 7.09503 5.08238 6.59182C4.52767 6.29305 3.95291 6.13579 3.34473 6.36381C3.1576 6.43457 2.9972 6.5761 2.97047 6.81198C2.93705 7.11861 3.11082 7.29945 3.32468 7.38594C3.53186 7.47243 3.75241 7.50388 3.96628 7.54319C4.34054 7.60609 4.7148 7.63754 5.08907 7.70831C5.95121 7.88914 6.63959 8.33731 6.8334 9.44593C7.04059 10.6568 6.64627 11.8204 5.82423 12.4652C5.10912 13.0313 4.30712 13.1649 3.58533 13.1335Z" fill="#FFCC00"/>
<path d="M12.4247 3.53527C12.9259 3.54313 13.4272 3.56672 13.9284 3.69252C14.3294 3.79474 14.5633 4.02275 14.4898 4.52595C14.3895 5.25717 14.2826 5.98053 14.1556 6.71174C14.0821 7.15205 13.8348 7.3093 13.4539 7.22281C13.0262 7.1206 12.5917 6.9948 12.1573 6.95548C11.0613 6.86113 10.3796 7.85182 10.6402 9.10982C10.7806 9.80173 11.1816 10.0926 11.7697 9.91967C12.2375 9.77814 12.6185 9.44791 12.9727 9.07051C13.2467 8.7796 13.4806 8.83463 13.6811 9.16486C14.0153 9.70738 14.3428 10.2499 14.6569 10.7924C14.8975 11.2013 14.8173 11.5472 14.4965 11.8539C13.3737 12.9232 12.1306 13.5286 10.6603 13.3084C8.69539 13.0175 7.31864 10.7295 7.61939 8.26067C7.99365 5.10778 9.61769 3.51955 12.4247 3.53527Z" fill="#FFCC00"/>
<path d="M42.3422 6.71776C42.2754 5.01158 42.389 3.31327 42.5561 1.62282C42.6496 0.655728 42.7432 0.577103 43.5853 0.655728C44.0531 0.695041 44.521 0.781529 44.9821 0.899468C45.6772 1.07244 45.6972 1.11962 45.5836 1.93733C45.3965 3.36045 45.196 4.78357 45.0155 6.21456C44.9286 6.91432 44.8885 7.61409 44.9621 8.31386C45.0489 9.06866 45.2561 9.30454 45.8977 9.1866C46.3923 9.09225 46.5861 9.28882 46.6997 9.80774C46.8534 10.4918 46.967 11.1758 46.9938 11.8835C47.0138 12.4496 46.8467 12.8112 46.3388 12.8899C46.3054 12.8977 46.2787 12.9056 46.2453 12.9135C43.8125 13.5896 42.5494 12.5361 42.3489 9.60332C42.2887 8.64409 42.3422 7.67699 42.3422 6.71776Z" fill="#FFCC00"/>
<path d="M28.48 3.53516C28.4198 3.53516 28.353 3.53516 28.2928 3.53516C26.6354 3.56661 25.3321 4.33714 24.724 6.21629C24.0757 8.2291 24.1225 10.2105 25.3789 11.9481C25.5193 12.1447 25.6997 12.3176 25.8868 12.4434C27.4039 13.4813 28.9879 13.67 30.5651 12.7186C32.0355 11.8223 32.5701 10.2576 32.53 8.37063C32.5167 5.17843 31.18 3.58233 28.48 3.53516ZM29.4557 9.55001C29.2285 10.2498 28.901 10.5092 28.3196 10.4778C27.7314 10.4463 27.4574 10.1633 27.3104 9.39276C27.2502 9.0704 27.2435 8.73231 27.2235 8.58292C27.2369 7.95391 27.297 7.51361 27.4641 7.10476C27.6913 6.55438 28.079 6.34209 28.6337 6.39713C29.1015 6.4443 29.3755 6.75094 29.5025 7.26201C29.6963 8.03254 29.6963 8.80307 29.4557 9.55001Z" fill="#FFCC00"/>
<path d="M37.3672 3.53516C37.1466 3.53516 36.9261 3.53516 36.7055 3.55088C35.0548 3.72386 33.8518 4.91897 33.404 6.82957C32.9028 8.95246 33.404 11.2483 34.6003 12.3176C34.627 12.3412 34.6471 12.3648 34.6738 12.3805C36.1776 13.4577 37.7615 13.67 39.3454 12.7658C40.8692 11.8931 41.4173 10.2891 41.4106 7.70231C41.4173 5.20988 40.0472 3.57447 37.3672 3.53516ZM38.2962 9.67581C38.0556 10.297 37.7415 10.5171 37.1801 10.4778C36.6253 10.4385 36.3513 10.1869 36.211 9.47925C36.064 8.78734 36.064 8.08758 36.2578 7.39567C36.465 6.65659 36.8258 6.35781 37.4474 6.38926C38.0155 6.42071 38.3029 6.71949 38.4499 7.49002C38.5034 7.77307 38.51 8.07185 38.5368 8.37063C38.5301 8.83452 38.4566 9.26696 38.2962 9.67581Z" fill="#FFCC00"/>
<path d="M54.5114 10.0138C54.0836 9.63643 54.0101 9.21185 54.097 8.66147C54.1973 8.04033 54.3242 7.42705 54.371 6.80591C54.5047 5.07615 53.8096 3.98325 52.3861 3.55081C51.3168 3.22845 50.2541 3.33852 49.2182 3.69234C47.3135 4.3292 47.1865 4.2034 47.8949 6.74301C48.1355 7.60789 48.2892 7.65506 49.0044 7.26194C49.5791 6.94743 50.1539 6.65652 50.8022 6.67224C51.1965 6.68011 51.5507 6.79018 51.798 7.18331C51.9116 7.37201 51.965 7.59216 51.8915 7.81232C51.8113 8.07178 51.6175 8.07964 51.4237 8.04819C51.1764 8.01674 50.9225 7.97743 50.6752 7.94598C50.3945 7.94598 50.1071 7.93025 49.8264 7.94598C47.9885 8.04819 46.9927 9.72292 47.5407 11.7986C47.8014 12.7972 48.2959 13.2611 49.1781 13.3554C49.9667 13.434 50.6752 13.1824 51.3168 12.6635C51.6175 12.4198 51.8447 12.3647 52.1321 12.7185C52.5264 13.206 53.0678 13.3397 53.6091 13.2611C54.097 13.1982 54.7319 13.1824 54.8322 12.4669C54.9525 11.6414 55.2666 10.6743 54.5114 10.0138ZM50.7955 10.8551C50.468 10.8708 50.2541 10.7215 50.2274 10.3126C50.2007 9.80154 50.595 9.3691 51.0962 9.3691C51.397 9.40841 51.6977 9.4949 51.7178 9.97452C51.7311 10.4148 51.2833 10.8315 50.7955 10.8551Z" fill="#FFCC00"/>
</svg>
